# File created by Blade
# Date/Time:  Mon Sep 22 16:09:39 2014
# Frame Rate: 120.000 fps
#------------------------------------------------------
:FULLY-SPECIFIED
:DEGREES
2115
root 2.357535 37.039681 2.050160 1.366945 -5.148227 1.398766
RightUpLeg 5.719989 -3.628090 -1.955435
RightLeg -4.804495 -0.000000 0.000000
RightFoot -12.838539 -16.073070 15.705065
RightToeBase 14.878369 -0.000000 -0.000000
LeftUpLeg 4.178849 3.308026 2.323083
LeftLeg -1.964192 -0.000000 0.000000
LeftFoot -9.804273 13.590140 -17.630572
LeftToeBase 9.865732 -0.000000 -0.000000
Spine 0.627680 -1.197420 -1.854819
RightShoulder 5.370508 -24.307059 -9.338375
RightArm 54.940514 -44.491914 39.860815
RightForeArm 84.154270 -0.000000 73.465687
RightHand -8.110821 0.000000 -3.715974
RightHandThumb1 -24.326973 -0.000000 -32.862282
LeftShoulder -21.897793 35.597739 -4.930007
LeftArm 40.744684 12.452170 -66.947021
LeftForeArm 17.991363 -0.000000 29.324957
LeftHand -13.959602 -0.000000 -7.628538
LeftHandThumb1 -26.253704 0.000000 33.147579
Head 10.039051 -22.130420 7.707276
2116
root 2.352371 37.039791 2.052034 1.351194 -5.166690 1.389909
RightUpLeg 5.725528 -3.635515 -1.945743
RightLeg -4.775449 -0.000000 0.000000
RightFoot -12.860398 -16.023761 15.719628
RightToeBase 14.932025 -0.000000 -0.000000
LeftUpLeg 4.173203 3.216892 2.335174
LeftLeg -1.901220 -0.000000 0.000000
LeftFoot -9.866805 13.665224 -17.653534
LeftToeBase 9.807840 -0.000000 -0.000000
Spine 0.631818 -1.152774 -1.862498
RightShoulder 5.302055 -24.310777 -9.221073
RightArm 54.672871 -44.368034 40.177118
RightForeArm 83.866406 -0.000000 73.426676
RightHand -8.109021 0.000000 -3.679557
RightHandThumb1 -24.326973 -0.000000 -32.862282
LeftShoulder -21.889892 35.658790 -4.873955
LeftArm 40.868940 12.499670 -66.903553
LeftForeArm 17.980033 0.000000 29.161584
LeftHand -13.958453 -0.000000 -7.718787
LeftHandThumb1 -26.253704 0.000000 33.147579
Head 10.151946 -22.244883 7.841079
2117
root 2.347305 37.039863 2.051772 1.357924 -5.201744 1.387904
RightUpLeg 5.712855 -3.626955 -1.938144
RightLeg -4.776867 -0.000000 0.000000
RightFoot -12.838891 -15.995093 15.743859
RightToeBase 14.856152 -0.000000 -0.000000
LeftUpLeg 4.137870 3.145422 2.334571
LeftLeg -1.834113 -0.000000 0.000000
LeftFoot -9.930155 13.767282 -17.667214
LeftToeBase 9.847970 -0.000000 -0.000000
Spine 0.609467 -1.114552 -1.884311
RightShoulder 5.242209 -24.306685 -9.105986
RightArm 54.328214 -44.229295 40.572183
RightForeArm 83.808479 -0.000000 73.411088
RightHand -8.003674 -0.000000 -3.747601
RightHandThumb1 -24.326973 -0.000000 -32.862282
LeftShoulder -21.884759 35.660175 -4.813756
LeftArm 40.922985 12.568422 -66.839086
LeftForeArm 17.981822 -0.000000 29.014849
LeftHand -13.925305 -0.000000 -7.819551
LeftHandThumb1 -26.253704 0.000000 33.147579
Head 10.272239 -22.368483 7.975475
2118
root 2.341158 37.039824 2.052953 1.366043 -5.234721 1.391460
RightUpLeg 5.708734 -3.596167 -1.934380
RightLeg -4.785514 -0.000000 0.000000
RightFoot -12.850288 -15.987838 15.731100
RightToeBase 14.943024 -0.000000 -0.000000
LeftUpLeg 4.104302 3.098667 2.333216
LeftLeg -1.769689 -0.000000 0.000000
LeftFoot -9.986452 13.831080 -17.708796
LeftToeBase 9.860473 -0.000000 -0.000000
Spine 0.577445 -1.072506 -1.921253
RightShoulder 5.149318 -24.312717 -8.964791
RightArm 53.945826 -44.080972 41.031559
RightForeArm 84.166021 -0.000000 73.411748
RightHand -7.668638 -0.000000 -4.229960
RightHandThumb1 -24.326973 -0.000000 -32.862282
LeftShoulder -21.871735 35.659455 -4.752326
LeftArm 40.964186 12.641437 -66.749185
LeftForeArm 17.995076 -0.000000 28.889028
LeftHand -13.968958 -0.000000 -7.994153
LeftHandThumb1 -26.253704 0.000000 33.147579
Head 10.413843 -22.521434 8.131042
2119
root 2.335460 37.039684 2.054192 1.382402 -5.275077 1.405947
RightUpLeg 5.689992 -3.574742 -1.940257
RightLeg -4.789000 -0.000000 0.000000
RightFoot -12.848013 -15.973673 15.716431
RightToeBase 14.905018 -0.000000 -0.000000
LeftUpLeg 4.058795 3.075547 2.319981
LeftLeg -1.695797 -0.000000 0.000000
LeftFoot -10.029434 13.887352 -17.706294
LeftToeBase 9.828608 -0.000000 -0.000000
Spine 0.529917 -1.031981 -1.972951
RightShoulder 5.055419 -24.370705 -8.833764
RightArm 53.465614 -43.859607 41.598857
RightForeArm 84.224146 -0.000000 73.361229
RightHand -7.682877 -0.000000 -4.146646
RightHandThumb1 -24.326973 -0.000000 -32.862282
LeftShoulder -21.867595 35.667041 -4.711024
LeftArm 40.997533 12.694064 -66.647519
LeftForeArm 18.062705 0.000000 28.772447
LeftHand -13.895749 -0.000000 -8.190370
LeftHandThumb1 -26.253704 0.000000 33.147579
Head 10.549087 -22.633498 8.320160
2120
root 2.336772 37.039624 2.047194 1.471814 -5.257420 1.431267
RightUpLeg 5.583882 -3.646697 -1.963115
RightLeg -4.776471 -0.000000 0.000000
RightFoot -12.843385 -15.926651 15.673021
RightToeBase 14.900197 -0.000000 -0.000000
LeftUpLeg 3.901533 2.943011 2.277961
LeftLeg -1.591398 -0.000000 0.000000
LeftFoot -10.085474 14.005212 -17.697479
LeftToeBase 9.788608 -0.000000 -0.000000
Spine 0.405773 -1.039191 -2.015068
RightShoulder 4.921000 -24.432428 -8.703440
RightArm 52.909474 -43.603607 42.239525
RightForeArm 84.266352 -0.000000 73.296686
RightHand -7.568308 -0.000000 -4.035246
RightHandThumb1 -24.326973 -0.000000 -32.862282
LeftShoulder -21.865614 35.669776 -4.693414
LeftArm 41.034262 12.741926 -66.551857
LeftForeArm 18.122096 -0.000000 28.644838
LeftHand -13.787230 -0.000000 -8.347480
LeftHandThumb1 -26.253704 0.000000 33.147579
Head 10.676055 -22.768413 8.457241
2121
root 2.331947 37.039076 2.050850 1.481912 -5.312598 1.444027
RightUpLeg 5.577776 -3.642317 -1.969620
RightLeg -4.788221 -0.000000 0.000000
RightFoot -12.835723 -15.899052 15.633407
RightToeBase 14.914741 -0.000000 -0.000000
LeftUpLeg 3.880796 2.951641 2.264648
LeftLeg -1.545847 -0.000000 0.000000
LeftFoot -10.136615 14.052288 -17.728861
LeftToeBase 9.830312 -0.000000 -0.000000
Spine 0.359062 -0.982309 -2.062284
RightShoulder 4.767342 -24.549041 -8.543405
RightArm 52.258583 -43.231447 42.987470
RightForeArm 84.355939 0.000000 73.307608
RightHand -7.516886 -0.000000 -3.735431
RightHandThumb1 -24.326973 -0.000000 -32.862282
LeftShoulder -21.852968 35.610333 -4.647717
LeftArm 40.986876 12.789519 -66.473996
LeftForeArm 18.189157 -0.000000 28.538972
LeftHand -13.760966 -0.000000 -8.523627
LeftHandThumb1 -26.253704 0.000000 33.147579
Head 10.807291 -22.951130 8.624505
2122
root 2.326070 37.039277 2.056080 1.471555 -5.386783 1.458193
RightUpLeg 5.593730 -3.625054 -1.979552
RightLeg -4.804083 -0.000000 0.000000
RightFoot -12.823494 -15.858477 15.628333
RightToeBase 14.877099 -0.000000 -0.000000
LeftUpLeg 3.896536 2.990024 2.254223
LeftLeg -1.524635 -0.000000 0.000000
LeftFoot -10.150817 14.088963 -17.726772
LeftToeBase 9.817447 -0.000000 -0.000000
Spine 0.343098 -0.908045 -2.114806
RightShoulder 4.536602 -24.693139 -8.320835
RightArm 51.703078 -42.813163 43.671699
RightForeArm 84.633669 -0.000000 73.369921
RightHand -7.508443 -0.000000 -4.162968
RightHandThumb1 -24.326973 -0.000000 -32.862282
LeftShoulder -21.868936 35.585633 -4.638154
LeftArm 40.986627 12.802082 -66.396184
LeftForeArm 18.264007 -0.000000 28.426782
LeftHand -13.756037 0.000000 -8.647164
LeftHandThumb1 -26.253704 0.000000 33.147579
Head 10.898516 -23.087708 8.809056
2123
root 2.322672 37.038199 2.060020 1.476449 -5.438740 1.474047
RightUpLeg 5.597666 -3.622129 -1.990960
RightLeg -4.825194 -0.000000 0.000000
RightFoot -12.832167 -15.832989 15.598792
RightToeBase 14.957992 -0.000000 -0.000000
LeftUpLeg 3.895904 3.005706 2.239987
LeftLeg -1.507755 -0.000000 0.000000
LeftFoot -10.164989 14.113729 -17.730916
LeftToeBase 9.772946 -0.000000 -0.000000
Spine 0.315184 -0.869305 -2.169625
RightShoulder 4.293893 -24.811847 -8.089092
RightArm 50.977386 -42.330547 44.484292
RightForeArm 84.663518 -0.000000 73.502351
RightHand -7.508841 -0.000000 -4.284742
RightHandThumb1 -24.326973 -0.000000 -32.862282
LeftShoulder -21.909382 35.552584 -4.624544
LeftArm 40.960294 12.800314 -66.378561
LeftForeArm 18.389419 0.000000 28.336893
LeftHand -13.783588 -0.000000 -8.728154
LeftHandThumb1 -26.253704 0.000000 33.147579
Head 10.965351 -23.246770 8.988110
2124
root 2.320373 37.037001 2.062319 1.497127 -5.463911 1.489085
RightUpLeg 5.584347 -3.636361 -2.003232
RightLeg -4.841261 -0.000000 0.000000
RightFoot -12.823323 -15.812398 15.546434
RightToeBase 14.979953 -0.000000 -0.000000
LeftUpLeg 3.874954 3.005437 2.223081
LeftLeg -1.498396 -0.000000 0.000000
LeftFoot -10.194829 14.139678 -17.758610
LeftToeBase 9.798260 -0.000000 -0.000000
Spine 0.280291 -0.871742 -2.211734
RightShoulder 4.052342 -24.909725 -7.875349
RightArm 50.082320 -41.776642 45.456965
RightForeArm 84.589025 -0.000000 73.749285
RightHand -7.564642 -0.000000 -4.467575
RightHandThumb1 -24.326973 -0.000000 -32.862282
LeftShoulder -21.962236 35.516396 -4.629379
LeftArm 40.912280 12.782297 -66.374744
LeftForeArm 18.492589 -0.000000 28.263485
LeftHand -13.777523 -0.000000 -8.817095
LeftHandThumb1 -26.253704 0.000000 33.147579
Head 11.016876 -23.417180 9.128741
2125
root 2.318129 37.036146 2.065082 1.514218 -5.490644 1.491818
RightUpLeg 5.578457 -3.632838 -2.001845
RightLeg -4.863406 -0.000000 0.000000
RightFoot -12.814434 -15.805132 15.533413
RightToeBase 14.946002 -0.000000 -0.000000
LeftUpLeg 3.869334 3.015303 2.222088
LeftLeg -1.504257 -0.000000 0.000000
LeftFoot -10.200374 14.146135 -17.768334
LeftToeBase 9.765876 -0.000000 -0.000000
Spine 0.244612 -0.873077 -2.242067
RightShoulder 3.788396 -24.973953 -7.634251
RightArm 48.977671 -41.134097 46.742260
RightForeArm 84.558399 0.000000 74.011266
RightHand -7.479623 0.000000 -4.935889
RightHandThumb1 -24.326973 -0.000000 -32.862282
LeftShoulder -22.049469 35.508825 -4.658630
LeftArm 40.925180 12.755916 -66.377990
LeftForeArm 18.511972 -0.000000 28.142235
LeftHand -13.764264 -0.000000 -8.921773
LeftHandThumb1 -26.253704 0.000000 33.147579
Head 11.077912 -23.562092 9.282279
